HIERARCHY
ROOT Hips
{
 OFFSET 0.000000 0.000000 0.000000
 CHANNELS 6 Xposition Yposition Zposition Yrotation Xrotation Zrotation
 JOINT Chest
 {
  OFFSET 0.000000 9.585900 0.002600
  CHANNELS 3 Yrotation Xrotation Zrotation
  JOINT Chest2
  {
   OFFSET 0.000000 9.601200 -0.005300
   CHANNELS 3 Yrotation Xrotation Zrotation
   JOINT Chest3
   {
    OFFSET 0.000000 9.561800 0.000000
    CHANNELS 3 Yrotation Xrotation Zrotation
    JOINT Chest4
    {
     OFFSET 0.000000 9.552100 0.000000
     CHANNELS 3 Yrotation Xrotation Zrotation
     JOINT Neck
     {
      OFFSET 0.000000 14.453000 0.000000
      CHANNELS 3 Yrotation Xrotation Zrotation
      JOINT Head
      {
       OFFSET 0.000000 8.936500 -0.011300
       CHANNELS 3 Yrotation Xrotation Zrotation
       End Site
       {
        OFFSET 0.000000 17.073600 -0.006000
       }
      }
     }
     JOINT RightCollar
     {
      OFFSET -2.921100 9.558500 0.000000
      CHANNELS 3 Yrotation Xrotation Zrotation
      JOINT RightShoulder
      {
       OFFSET -13.519700 0.000000 0.000000
       CHANNELS 3 Yrotation Xrotation Zrotation
       JOINT RightElbow
       {
        OFFSET 0.000000 -29.696600 0.000000
        CHANNELS 3 Yrotation Xrotation Zrotation
        JOINT RightWrist
        {
         OFFSET 0.000000 -24.004700 0.000000
         CHANNELS 3 Yrotation Xrotation Zrotation
         End Site
         {
          OFFSET 0.000000 -17.728500 0.000000
         }
        }
       }
      }
     }
     JOINT LeftCollar
     {
      OFFSET 2.921100 9.558500 0.000000
      CHANNELS 3 Yrotation Xrotation Zrotation
      JOINT LeftShoulder
      {
       OFFSET 13.519700 0.000000 0.000000
       CHANNELS 3 Yrotation Xrotation Zrotation
       JOINT LeftElbow
       {
        OFFSET 0.000000 -29.696600 0.000000
        CHANNELS 3 Yrotation Xrotation Zrotation
        JOINT LeftWrist
        {
         OFFSET 0.000000 -24.004700 0.000000
         CHANNELS 3 Yrotation Xrotation Zrotation
         End Site
         {
          OFFSET 0.000000 -17.728500 0.000000
         }
        }
       }
      }
     }
    }
   }
  }
 }
 JOINT RightHip
 {
  OFFSET -7.771700 -0.012900 -0.001300
  CHANNELS 3 Yrotation Xrotation Zrotation
  JOINT RightKnee
  {
   OFFSET 0.000000 -40.869800 0.001200
   CHANNELS 3 Yrotation Xrotation Zrotation
   JOINT RightAnkle
   {
    OFFSET 0.000000 -39.717900 0.002100
    CHANNELS 3 Yrotation Xrotation Zrotation
    JOINT RightToe
    {
     OFFSET 0.000000 -4.965400 11.033500
     CHANNELS 3 Yrotation Xrotation Zrotation
     End Site
     {
      OFFSET 0.000000 -1.423100 5.872300
     }
    }
   }
  }
 }
 JOINT LeftHip
 {
  OFFSET 7.771700 -0.012900 -0.001300
  CHANNELS 3 Yrotation Xrotation Zrotation
  JOINT LeftKnee
  {
   OFFSET 0.000000 -40.869800 0.001200
   CHANNELS 3 Yrotation Xrotation Zrotation
   JOINT LeftAnkle
   {
    OFFSET 0.000000 -39.717900 0.002100
    CHANNELS 3 Yrotation Xrotation Zrotation
    JOINT LeftToe
    {
     OFFSET 0.000000 -4.965400 11.033500
     CHANNELS 3 Yrotation Xrotation Zrotation
     End Site
     {
      OFFSET 0.000000 -1.423100 5.872300
     }
    }
   }
  }
 }
}
MOTION
Frames: 5
Frame Time: 0.008333
0.000000 85.388000 0.000000 0.000000 -5.767877 0.000000 0.000000 11.653817 0.000000 0.000000 -5.885947 0.000000 0.000000 -0.000000 0.000000 0.000000 -0.000000 0.000000 0.000000 12.528835 0.000000 0.000000 0.711642 0.000000 0.000000 -0.000000 0.000000 0.000000 0.000000 -90.000000 0.000000 -2.309062 0.000000 0.000000 2.309062 0.000000 0.000000 -0.000000 0.000000 0.000000 -0.000000 90.000000 0.000000 -2.309062 0.000000 0.000000 2.309062 0.000000 0.000000 8.520406 0.000000 0.000000 1.905762 0.000000 -0.000000 -4.658285 0.000000 0.000000 -0.000000 0.000000 0.000000 8.520406 0.000000 0.000000 1.905762 0.000000 -0.000000 -4.658285 0.000000 0.000000 -0.000000 0.000000
-54.519559 50.226797 35.597742 172.017172 -33.233603 -4.639397 6.650490 20.209166 6.051809 0.774334 2.783255 0.630868 1.276872 4.524780 1.046817 5.507089 17.263611 4.702474 -7.557061 14.732352 -3.159489 -12.970882 -8.393348 -3.082305 2.603319 -1.092716 -8.451117 10.848410 -13.196596 -31.779149 -118.848673 -51.389453 131.442049 -0.252545 -6.991076 53.281453 -12.871282 -1.524315 -0.316472 2.056520 -20.797895 19.015524 95.452658 -49.928475 -127.756213 20.327592 7.134052 -51.926906 5.174322 -49.036027 7.128867 3.566798 85.228030 13.905811 -6.605937 -4.764616 -2.073586 0.005866 0.229581 0.004864 -11.273333 -51.494198 17.500464 -152.705894 88.287978 -159.396816 -0.646660 -6.811092 3.053889 -0.024407 -0.216426 0.015157
-54.515874 50.223939 35.591288 172.036352 -33.240602 -4.644333 6.687821 20.259969 6.080943 0.779394 2.800281 0.635210 1.284965 4.550909 1.053705 5.524711 17.304746 4.718741 -7.488155 14.765447 -3.154295 -12.842414 -8.334658 -3.100843 2.695236 -1.041804 -8.288729 10.726436 -13.535688 -31.340114 -118.918368 -51.458595 131.163382 -0.655832 -7.037592 51.737683 -12.941862 -1.456868 -0.355197 1.920393 -20.914299 18.678533 95.642052 -49.934897 -127.733757 21.138462 6.773479 -50.253883 5.176022 -49.034700 7.128266 3.588960 85.243934 13.930583 -6.621694 -4.776417 -2.069306 0.024104 0.225736 0.005371 -11.271365 -51.492486 17.494468 -152.708643 88.274317 -159.404382 -0.652828 -6.820050 3.062044 -0.025834 -0.215578 0.012341
-54.513881 50.222101 35.580644 172.103960 -33.264184 -4.657319 6.685407 20.333996 6.097763 0.784275 2.817988 0.639891 1.292765 4.577999 1.061273 5.540826 17.347543 4.736834 -7.410502 14.795666 -3.145276 -12.699222 -8.281329 -3.115122 2.778016 -0.984426 -8.141630 10.637251 -13.853177 -30.900278 -119.042550 -51.560063 130.908221 -1.025773 -7.067657 50.134613 -13.008626 -1.390069 -0.388491 1.760902 -21.020580 18.350127 95.895106 -49.995996 -127.726736 21.911937 6.421515 -48.532736 5.149611 -49.009105 7.108459 3.642222 85.272247 13.977877 -6.624313 -4.797733 -2.066719 0.015950 0.220844 0.010748 -11.281300 -51.474327 17.453204 -152.620944 88.266495 -159.326109 -0.658326 -6.828465 3.070853 -0.027074 -0.213505 0.012403
-54.509872 50.218802 35.571407 172.148587 -33.275905 -4.667055 6.707925 20.395763 6.126306 0.789130 2.836056 0.644959 1.300384 4.605732 1.069403 5.556155 17.391060 4.756677 -7.325929 14.824298 -3.130382 -12.545465 -8.230865 -3.120728 2.847279 -0.920805 -8.007809 10.575269 -14.163313 -30.461830 -119.199591 -51.697400 130.669088 -1.363584 -7.080678 48.497401 -13.069210 -1.326212 -0.421617 1.590306 -21.113812 18.028650 96.226033 -50.125706 -127.747142 22.638928 6.081868 -46.803799 5.134504 -49.000693 7.102353 4.140465 85.287010 14.473023 -6.683400 -4.816606 -2.061194 0.018404 0.218969 0.010936 -11.274965 -51.470866 17.428588 -152.313955 88.245862 -159.022766 -0.666001 -6.837821 3.079414 -0.025574 -0.211916 0.018276
